<svg width="55px" height="55px" viewBox="0 0 2.2 2.2" xmlns="http://www.w3.org/2000/svg"><title>file_type_html</title><path points="5.902 27.201 3.655 2 28.345 2 26.095 27.197 15.985 30 5.902 27.201" style="fill:#fff" d="M0.407 1.87 0.253 0.143h1.694L1.793 1.87 1.1 2.068z"/><path points="16 27.858 24.17 25.593 26.092 4.061 16 4.061 16 27.858" style="fill:#fff" d="M1.1 1.914 1.661 1.76 1.793 0.275H1.1z"/><path points="16 13.407 11.91 13.407 11.628 10.242 16 10.242 16 7.151 15.989 7.151 8.25 7.151 8.324 7.981 9.083 16.498 16 16.498 16 13.407" style="fill:#222" d="M1.1 0.924H0.814L0.803 0.704H1.1V0.495H0.572V0.55l0.055 0.583H1.1z"/><path points="16 21.434 15.986 21.438 12.544 20.509 12.324 18.044 10.651 18.044 9.221 18.044 9.654 22.896 15.986 24.654 16 24.65 16 21.434" style="fill:#222" d="M1.1 1.474 0.858 1.408 0.847 1.243H0.638l0.022 0.33 0.44 0.121z"/><path points="15.989 13.407 15.989 16.498 19.795 16.498 19.437 20.507 15.989 21.437 15.989 24.653 22.326 22.896 22.372 22.374 23.098 14.237 23.174 13.407 22.341 13.407 15.989 13.407" style="fill:#222" d="M1.1 0.924v0.209h0.264L1.331 1.408 1.1 1.474v0.22L1.54 1.573V1.54L1.584 0.979 1.595 0.924H1.1"/><path points="15.989 7.151 15.989 9.071 15.989 10.235 15.989 10.242 23.445 10.242 23.445 10.242 23.455 10.242 23.517 9.548 23.658 7.981 23.732 7.151 15.989 7.151" style="fill:#222" d="M1.1 0.495v0.209h0.517V0.66L1.628 0.55V0.495z"/></svg>