<svg width="55px" height="55px" viewBox="0 0 2.2 2.2" version="1.1" xmlns="http://www.w3.org/2000/svg" xmlns:xlink="http://www.w3.org/1999/xlink"><path fill="#fff" d="M0.863 1.596s-0.068 0.039 0.048 0.053c0.14 0.016 0.212 0.014 0.366 -0.016 0 0 0.041 0.025 0.097 0.048 -0.346 0.148 -0.783 -0.009 -0.511 -0.085zm-0.042 -0.194s-0.076 0.056 0.04 0.068c0.15 0.015 0.268 0.017 0.472 -0.023 0 0 0.028 0.029 0.073 0.044 -0.418 0.122 -0.884 0.01 -0.585 -0.09m0.356 -0.328c0.085 0.098 -0.022 0.187 -0.022 0.187s0.216 -0.112 0.117 -0.252c-0.093 -0.13 -0.164 -0.195 0.221 -0.419 0 0 -0.605 0.151 -0.316 0.484zm0.458 0.665s0.05 0.041 -0.055 0.073c-0.2 0.061 -0.831 0.079 -1.007 0.002 -0.063 -0.027 0.055 -0.066 0.092 -0.073 0.039 -0.008 0.061 -0.007 0.061 -0.007 -0.07 -0.049 -0.453 0.097 -0.195 0.139 0.706 0.114 1.286 -0.051 1.103 -0.134zm-0.739 -0.537s-0.321 0.076 -0.114 0.104c0.088 0.012 0.262 0.009 0.425 -0.005 0.133 -0.011 0.266 -0.035 0.266 -0.035s-0.047 0.02 -0.081 0.043c-0.326 0.086 -0.956 0.046 -0.775 -0.042 0.153 -0.074 0.278 -0.066 0.278 -0.066zm0.576 0.322c0.332 -0.172 0.178 -0.338 0.071 -0.316 -0.026 0.005 -0.038 0.01 -0.038 0.01s0.01 -0.015 0.028 -0.022c0.212 -0.074 0.375 0.22 -0.068 0.336 0 0 0.005 -0.005 0.007 -0.009M1.272 0.229s0.184 0.184 -0.174 0.466c-0.287 0.227 -0.065 0.356 0 0.503 -0.167 -0.151 -0.29 -0.284 -0.208 -0.408 0.121 -0.182 0.456 -0.27 0.382 -0.562zm-0.344 1.762c0.318 0.02 0.807 -0.011 0.819 -0.162 0 0 -0.022 0.057 -0.263 0.102 -0.272 0.051 -0.607 0.045 -0.805 0.012 0 0 0.041 0.034 0.25 0.047z"/></svg>