<svg width="55px" height="55px" viewBox="-0.688 -0.344 71.088 71.088" xmlns="http://www.w3.org/2000/svg" xmlns:xlink="http://www.w3.org/1999/xlink" version="1.1"><path fill="#fff" d="M5.157 12.169v58.438h58.438V12.169zm44.482 26.469q2.682 0 4.572 1.032t3.197 3.369l-4.263 2.75q-0.688 -1.238 -1.513 -1.788t-1.994 -0.55 -1.891 0.653 -0.722 1.682q0 1.169 0.757 1.925 0.688 0.619 2.613 1.444l1.375 0.55q3.782 1.65 5.363 3.369 1.925 2.063 1.925 5.294 0 3.575 -2.613 5.638 -2.475 1.994 -6.532 1.994 -3.644 0 -6.257 -1.582 -2.407 -1.513 -3.713 -4.057l4.469 -2.544q0.963 1.582 2.132 2.407 1.375 0.894 3.3 0.894 1.65 0 2.682 -0.757t1.032 -1.994 -1.032 -2.063q-0.757 -0.55 -2.957 -1.513l-1.375 -0.619q-3.3 -1.375 -4.813 -3.094 -1.788 -1.994 -1.788 -5.157t2.2 -5.225 5.844 -2.063m-18.15 0.344h5.5V57.75q0 4.125 -2.338 6.257 -2.132 1.994 -5.913 1.994 -3.094 0 -5.294 -1.444 -1.857 -1.307 -2.957 -3.575L25.025 58.3q0.757 1.444 1.375 1.994 0.825 0.825 2.132 0.825 1.444 0 2.132 -0.688 0.825 -0.825 0.825 -2.75z"/></svg>