<svg width="55px" height="55px" viewBox="0 -0.069 2.338 2.338" version="1.1" xmlns="http://www.w3.org/2000/svg" xmlns:xlink="http://www.w3.org/1999/xlink"><path fill="#fff" d="M0.244 0.196v1.861h1.893V0.196zm1.742 1.713H0.395V0.344h1.592z"/><path fill="#fff" d="M1.138 0.718c-0.048 -0.041 -0.119 -0.065 -0.218 -0.065 -0.099 0 -0.218 0.003 -0.218 0.003v0.763h0.16v-0.245s0.028 0 0.058 -0.002c0.11 -0.005 0.174 -0.038 0.229 -0.094 0.042 -0.043 0.066 -0.105 0.066 -0.181s-0.031 -0.142 -0.076 -0.181m-0.222 0.321c-0.026 0 -0.037 0.001 -0.054 -0.001v-0.264s0.034 -0.001 0.067 0c0.082 0.003 0.126 0.061 0.126 0.132 0 0.079 -0.053 0.131 -0.139 0.132"/><path fill="#fff" d="M1.527 1.063c-0.069 -0.024 -0.091 -0.038 -0.091 -0.065 0 -0.029 0.024 -0.047 0.067 -0.047 0.048 0 0.121 0.031 0.147 0.045v-0.129c-0.035 -0.017 -0.087 -0.039 -0.153 -0.039 -0.139 0 -0.229 0.08 -0.229 0.188 -0.001 0.066 0.044 0.114 0.16 0.153 0.066 0.022 0.083 0.053 0.083 0.082s-0.022 0.048 -0.075 0.048c-0.052 0 -0.128 -0.03 -0.16 -0.049v0.127c0.043 0.023 0.104 0.045 0.16 0.047 0.162 0.005 0.244 -0.079 0.244 -0.185 -0.001 -0.084 -0.046 -0.139 -0.153 -0.176z"/></svg>