<svg width="50px" height="50px" viewBox="0 0 2.2 2.2" fill="none" xmlns="http://www.w3.org/2000/svg"><path d="M1.498 1.482a0.145 0.145 0 0 0 0.131 -0.15c-0.003 -0.077 -0.068 -0.139 -0.147 -0.139h-0.005a0.145 0.145 0 0 0 -0.142 0.15c0.003 0.039 0.018 0.072 0.042 0.095 -0.089 0.173 -0.226 0.299 -0.43 0.405 -0.139 0.072 -0.283 0.098 -0.428 0.08 -0.118 -0.015 -0.21 -0.067 -0.268 -0.152 -0.084 -0.127 -0.092 -0.263 -0.021 -0.4 0.05 -0.098 0.129 -0.17 0.178 -0.206a1.375 1.375 0 0 1 -0.034 -0.132c-0.381 0.271 -0.341 0.637 -0.226 0.81 0.087 0.129 0.262 0.209 0.457 0.209 0.052 0 0.105 -0.005 0.157 -0.018 0.336 -0.064 0.591 -0.261 0.735 -0.552m0.462 -0.32c-0.199 -0.23 -0.493 -0.356 -0.829 -0.356h-0.042a0.144 0.144 0 0 0 -0.129 -0.077h-0.005a0.145 0.145 0 0 0 -0.142 0.15c0.003 0.077 0.068 0.139 0.147 0.139h0.005a0.148 0.148 0 0 0 0.129 -0.088h0.047c0.199 0 0.388 0.057 0.559 0.168 0.131 0.085 0.226 0.196 0.278 0.33 0.045 0.108 0.042 0.214 -0.005 0.304 -0.074 0.137 -0.197 0.212 -0.36 0.212 -0.105 0 -0.205 -0.031 -0.257 -0.054a1.581 1.581 0 0 1 -0.118 0.093c0.113 0.052 0.228 0.08 0.339 0.08 0.252 0 0.438 -0.137 0.509 -0.274 0.076 -0.15 0.071 -0.408 -0.126 -0.627M0.626 1.526c0.003 0.077 0.068 0.139 0.147 0.139h0.005a0.145 0.145 0 0 0 0.142 -0.15c-0.003 -0.077 -0.068 -0.139 -0.147 -0.139h-0.005c-0.005 0 -0.013 0 -0.018 0.003 -0.108 -0.175 -0.152 -0.366 -0.136 -0.573 0.01 -0.155 0.063 -0.289 0.155 -0.4 0.076 -0.095 0.223 -0.142 0.323 -0.144 0.278 -0.005 0.396 0.335 0.404 0.472 0.034 0.008 0.092 0.026 0.131 0.039 -0.032 -0.418 -0.294 -0.635 -0.546 -0.635 -0.236 0 -0.454 0.168 -0.541 0.415 -0.121 0.33 -0.042 0.648 0.105 0.898 -0.013 0.018 -0.021 0.046 -0.018 0.075" fill="#fff"/></svg>