<svg fill="#fff" width="55px" height="55px" viewBox="-0.125 -0.125 1.5 1.5" xmlns="http://www.w3.org/2000/svg" preserveAspectRatio="xMinYMin" class="jam jam-wordpress"><path d="M0.624 0C0.28 0 0 0.28 0 0.624s0.28 0.624 0.624 0.624 0.624 -0.28 0.624 -0.624S0.969 0 0.624 0zM0.089 0.624c0 -0.075 0.017 -0.147 0.046 -0.212l0.255 0.681c-0.179 -0.084 -0.302 -0.263 -0.302 -0.469zm0.535 0.521a0.556 0.556 0 0 1 -0.151 -0.021l0.161 -0.455 0.164 0.439 0.004 0.007a0.55 0.55 0 0 1 -0.177 0.029M0.698 0.38c0.032 -0.002 0.061 -0.005 0.061 -0.005 0.029 -0.003 0.025 -0.044 -0.003 -0.043 0 0 -0.087 0.007 -0.143 0.007 -0.052 0 -0.141 -0.007 -0.141 -0.007 -0.029 -0.002 -0.032 0.041 -0.003 0.043 0 0 0.027 0.003 0.056 0.005l0.083 0.223 -0.117 0.342 -0.195 -0.565c0.032 -0.002 0.061 -0.005 0.061 -0.005 0.029 -0.003 0.025 -0.045 -0.003 -0.043 0 0 -0.087 0.007 -0.143 0.007l-0.034 -0.001c0.096 -0.141 0.26 -0.235 0.447 -0.235 0.139 0 0.266 0.052 0.361 0.137l-0.007 -0.001c-0.053 0 -0.09 0.045 -0.09 0.092 0 0.043 0.025 0.079 0.052 0.122 0.021 0.035 0.044 0.079 0.044 0.144 0 0.045 -0.018 0.096 -0.041 0.169l-0.053 0.174zm0.195 0.695 0.164 -0.46c0.031 -0.074 0.041 -0.134 0.041 -0.187q0 -0.029 -0.004 -0.054a0.509 0.509 0 0 1 0.066 0.25c0 0.192 -0.107 0.36 -0.266 0.45"/></svg>